<svg xmlns="http://www.w3.org/2000/svg" viewBox="0 0 300 300" width="3000" height="3000"><!-- The Cut-Trenches | DM | 30x30 squares, 1 sq = 5 ft --><style>text{font-family:Georgia;font-weight:bold;fill:#f2e6c8}.h{fill:#4a3442;opacity:.8}.s{fill:#2e2114;stroke:#120c06;stroke-width:.5}.tk{stroke:#000;stroke-width:.6}</style><defs><pattern id="g" width="10" height="10" patternUnits="userSpaceOnUse"><path d="M10 0H0V10" fill="none" stroke="#000" stroke-width=".5" opacity=".55"/></pattern><pattern id="bog" width="4" height="4" patternUnits="userSpaceOnUse"><rect width="4" height="4" fill="#3e4a2c"/><path d="M0 2h2" stroke="#2b3520" stroke-width=".8"/></pattern></defs><rect x="0" y="0" width="300" height="300" fill="#5b5034" /><circle cx="0" cy="0" r="2.2" class="h"/><circle cx="292" cy="168" r="2.2" class="h"/><circle cx="284" cy="36" r="2.2" class="h"/><circle cx="276" cy="204" r="2.2" class="h"/><circle cx="268" cy="72" r="2.2" class="h"/><circle cx="41" cy="189" r="2.2" class="h"/><circle cx="260" cy="240" r="2.2" class="h"/><circle cx="33" cy="57" r="2.2" class="h"/><circle cx="252" cy="108" r="2.2" class="h"/><circle cx="25" cy="225" r="2.2" class="h"/><circle cx="244" cy="276" r="2.2" class="h"/><circle cx="17" cy="93" r="2.2" class="h"/><circle cx="236" cy="144" r="2.2" class="h"/><circle cx="9" cy="261" r="2.2" class="h"/><circle cx="1" cy="129" r="2.2" class="h"/><circle cx="293" cy="297" r="2.2" class="h"/><circle cx="285" cy="165" r="2.2" class="h"/><circle cx="277" cy="33" r="2.2" class="h"/><circle cx="269" cy="201" r="2.2" class="h"/><circle cx="42" cy="18" r="2.2" class="h"/><circle cx="261" cy="69" r="2.2" class="h"/><circle cx="34" cy="186" r="2.2" class="h"/><circle cx="253" cy="237" r="2.2" class="h"/><circle cx="26" cy="54" r="2.2" class="h"/><circle cx="245" cy="105" r="2.2" class="h"/><circle cx="18" cy="222" r="2.2" class="h"/><circle cx="237" cy="273" r="2.2" class="h"/><rect x="50" y="30" width="30" height="240" fill="#3a2c1c" /><rect x="52" y="32" width="26" height="236" fill="#1d2a2f" /><rect x="100" y="30" width="30" height="240" fill="#3a2c1c" /><rect x="102" y="32" width="26" height="236" fill="#1d2a2f" /><rect x="150" y="30" width="30" height="240" fill="#3a2c1c" /><rect x="152" y="32" width="26" height="236" fill="#1d2a2f" /><rect x="200" y="30" width="30" height="240" fill="#3a2c1c" /><rect x="202" y="32" width="26" height="236" fill="#1d2a2f" /><rect x="80" y="30" width="20" height="240" fill="#4b3b26" /><rect x="130" y="30" width="20" height="240" fill="#4b3b26" /><rect x="180" y="30" width="20" height="240" fill="#4b3b26" /><rect x="82" y="60" width="16" height="10" class="s"/><rect x="82" y="150" width="16" height="10" class="s"/><rect x="82" y="220" width="16" height="10" class="s"/><rect x="132" y="90" width="16" height="10" class="s"/><rect x="132" y="190" width="16" height="10" class="s"/><rect x="182" y="50" width="16" height="10" class="s"/><rect x="182" y="130" width="16" height="10" class="s"/><rect x="182" y="240" width="16" height="10" class="s"/><rect x="36" y="100" width="16" height="10" class="s"/><rect x="233" y="170" width="16" height="10" class="s"/><line x1="136" y1="142" x2="144" y2="152" stroke="#b9a67a" stroke-width="1.2"/><g transform="translate(270,40)"><path d="M0-9L3 0H-3Z" fill="#f2e6c8" class="tk"/><path d="M0 9L3 0H-3Z" fill="#555" class="tk"/><text text-anchor="middle" y="-11" font-size="5" fill="#f2e6c8">N</text></g><g transform="translate(10,275)"><rect x="0" y="0" width="10" height="2" fill="#f2e6c8" stroke="#000" stroke-width=".4"/><rect x="10" y="0" width="10" height="2" fill="#222" stroke="#000" stroke-width=".4"/><rect x="20" y="0" width="10" height="2" fill="#f2e6c8" stroke="#000" stroke-width=".4"/><rect x="30" y="0" width="10" height="2" fill="#222" stroke="#000" stroke-width=".4"/><text text-anchor="middle" x="20" y="7" font-size="3.5" fill="#f2e6c8">20 ft (1 sq = 5 ft)</text></g><rect x="103" y="70" width="24" height="20" fill="url(#bog)" stroke="#9fd36b" stroke-width=".6" stroke-dasharray="1.5 1"/><rect x="153" y="200" width="24" height="20" fill="url(#bog)" stroke="#9fd36b" stroke-width=".6" stroke-dasharray="1.5 1"/><circle cx="65" cy="40" r="3.8" fill="#b3261e" class="tk"/><text text-anchor="middle" x="65" y="41.5" font-size="3.2" fill="#fff">B</text><circle cx="115" cy="255" r="3.8" fill="#b3261e" class="tk"/><text text-anchor="middle" x="115" y="256.5" font-size="3.2" fill="#fff">B</text><circle cx="165" cy="40" r="3.8" fill="#b3261e" class="tk"/><text text-anchor="middle" x="165" y="41.5" font-size="3.2" fill="#fff">B</text><circle cx="215" cy="255" r="3.8" fill="#b3261e" class="tk"/><text text-anchor="middle" x="215" y="256.5" font-size="3.2" fill="#fff">B</text><circle cx="260" cy="120" r="3.8" fill="#7a4bb3" class="tk"/><text text-anchor="middle" x="260" y="121.5" font-size="3.2" fill="#fff">E</text><circle cx="260" cy="180" r="3.8" fill="#7a4bb3" class="tk"/><text text-anchor="middle" x="260" y="181.5" font-size="3.2" fill="#fff">E</text><circle cx="215" cy="120" r="3.8" fill="#2f6db3" class="tk"/><text text-anchor="middle" x="215" y="121.5" font-size="3.2" fill="#fff">H</text><circle cx="65" cy="180" r="3.8" fill="#2f6db3" class="tk"/><text text-anchor="middle" x="65" y="181.5" font-size="3.2" fill="#fff">H</text><text text-anchor="middle" x="22" y="154" font-size="3.2" fill="#f2e6c8">PARTY</text><path d="M22 165v20" stroke="#f2e6c8" stroke-width=".8"/><text text-anchor="middle" x="150" y="16" font-size="4.5" fill="#f2e6c8">SP-PBS-02 · The Cut-Trenches (DM)</text><rect x="234" y="220" width="64" height="74" fill="#000" opacity=".6"/><text x="237" y="234" font-size="2.7" font-weight="normal">B boar · E elk · H hound</text><text x="237" y="247.5" font-size="2.7" font-weight="normal">Trench 10 ft drop (1d6)</text><text x="237" y="261" font-size="2.7" font-weight="normal">Water: difficult</text><text x="237" y="274.5" font-size="2.7" font-weight="normal">Bog: Athletics DC 11</text><text x="237" y="288" font-size="2.7" font-weight="normal">Stack: ½ cover; topple 12</text><rect width="300" height="300" fill="url(#g)"/></svg>